<?xml version="1.0" encoding="UTF-8"?>
<svg version="1.1" xmlns="http://www.w3.org/2000/svg" width="512" height="512">
<path d="M0 0 C1.3968702 1.18298271 2.77170949 2.39240143 4.125 3.625 C5.28322266 4.6459375 5.28322266 4.6459375 6.46484375 5.6875 C50.70226452 47.0596218 67.89218097 119.09280405 74.125 176.625 C74.21161896 177.41713394 74.29823792 178.20926788 74.38748169 179.02540588 C75.12129205 186.28143154 75.30051096 193.47967802 75.328125 200.76953125 C75.33513931 202.00501709 75.34215363 203.24050293 75.34938049 204.51342773 C75.36682628 208.48813524 75.37381519 212.46276235 75.375 216.4375 C75.37566278 217.45184931 75.37566278 217.45184931 75.37633896 218.48669052 C75.38316054 238.37092171 75.10040291 257.92347849 72.125 277.625 C71.86759033 279.46457275 71.86759033 279.46457275 71.60498047 281.34130859 C68.88578 300.69647545 65.0030275 319.70424715 60.125 338.625 C59.8067627 339.8919873 59.48852539 341.15897461 59.16064453 342.46435547 C58.8304834 343.7123291 58.50032227 344.96030273 58.16015625 346.24609375 C57.71941772 347.93690063 57.71941772 347.93690063 57.26977539 349.66186523 C55.95667751 353.06068566 55.02403908 354.42328003 52.125 356.625 C49.31184446 357.01785501 46.89011737 357.16578449 44.078125 357.13293457 C42.85216614 357.14229451 42.85216614 357.14229451 41.60144043 357.15184355 C38.85900136 357.16781602 36.11744588 357.1551529 33.375 357.14257812 C31.41047649 357.14799736 29.44595704 357.1551189 27.48144531 357.16381836 C22.14263984 357.18207823 16.80414301 357.17497313 11.46533203 357.16230202 C5.88312944 357.15218818 0.30095361 357.1615632 -5.28125 357.16784668 C-14.65629836 357.17512779 -24.03122076 357.16552318 -33.40625 357.14648438 C-44.25132339 357.12471481 -55.09609601 357.13176584 -65.94116211 357.15379 C-75.24571308 357.17193075 -84.5501734 357.17450879 -93.85473633 357.16403532 C-99.41492647 357.15779312 -104.97497515 357.15698476 -110.53515625 357.17018127 C-115.76206572 357.18171983 -120.98858669 357.17375043 -126.2154541 357.15060425 C-128.13593907 357.1453065 -130.05645662 357.14684908 -131.97692871 357.15565491 C-134.59443838 357.16655201 -137.2106956 357.15291811 -139.828125 357.13293457 C-140.97383972 357.1463189 -140.97383972 357.1463189 -142.1427002 357.15997362 C-145.64682597 357.10791905 -147.51945198 356.90257768 -150.32107544 354.71533966 C-151.87223225 352.62872318 -152.67045054 351.07981696 -153.3671875 348.58984375 C-153.59414307 347.79537842 -153.82109863 347.00091309 -154.05493164 346.18237305 C-154.39899048 344.88553589 -154.39899048 344.88553589 -154.75 343.5625 C-155.00193115 342.64057861 -155.2538623 341.71865723 -155.51342773 340.76879883 C-163.21132036 312.01806497 -168.78973289 282.35017248 -170.875 252.625 C-170.96112549 251.40530518 -171.04725098 250.18561035 -171.13598633 248.92895508 C-171.84191472 238.34512358 -172.07705261 227.79325529 -172.0625 217.1875 C-172.06189575 216.36317474 -172.0612915 215.53884949 -172.06066895 214.68954468 C-171.94909981 158.18998388 -160.70163555 101.70303015 -133.875 51.625 C-133.483125 50.89055664 -133.09125 50.15611328 -132.6875 49.39941406 C-125.71367724 36.40522088 -118.22048125 24.08075121 -108.875 12.625 C-108.09769531 11.62726562 -108.09769531 11.62726562 -107.3046875 10.609375 C-81.14738207 -21.48702876 -32.12951314 -23.92743672 0 0 Z M-94.62109375 119.5234375 C-104.23867894 131.36430862 -108.48274352 146.73202074 -107.8125 161.8125 C-105.91715595 179.38932219 -98.25458134 193.16195328 -84.875 204.625 C-70.53787104 215.519598 -55.42136558 217.9085392 -37.875 216.625 C-33.26020258 215.79839862 -29.17058609 214.48680973 -24.875 212.625 C-23.946875 212.22410156 -23.01875 211.82320313 -22.0625 211.41015625 C-7.26425111 204.15817348 3.71614096 191.13381384 9.125 175.625 C14.08622005 158.76042104 11.45840623 141.27320374 3.13671875 125.95703125 C-5.33320086 111.92821295 -18.20184561 104.07608818 -33.640625 99.51171875 C-56.63986204 94.02208802 -78.95074196 102.4858738 -94.62109375 119.5234375 Z " fill="#AF00FF" transform="translate(303.875,47.375)"/>
<path d="M0 0 C1.10822929 0.9351605 2.21434046 1.87283142 3.31958008 2.81152344 C3.93577713 3.33341248 4.55197418 3.85530151 5.18684387 4.39300537 C35.56883286 31.32046758 52.45045131 75.94202895 54.83984375 115.5625 C55.76016915 135.31582556 53.55113151 154.78323273 49 174 C48.73147217 175.13598633 48.73147217 175.13598633 48.45751953 176.29492188 C42.55138568 200.59384189 32.53756043 227.5528843 14 245 C13.67 245.33 13.34 245.66 13 246 C9.75 246.375 9.75 246.375 6 246 C1.82912475 242.42978478 -1.10380769 238.21265334 -4.125 233.6875 C-5.09621022 232.25380873 -6.06756854 230.82021777 -7.0390625 229.38671875 C-7.53051758 228.65759277 -8.02197266 227.9284668 -8.52832031 227.17724609 C-10.83117854 223.77033009 -13.1664793 220.38595026 -15.5 217 C-16.40897088 215.67716352 -17.31782452 214.35424648 -18.2265625 213.03125 C-20.13338786 210.25719232 -22.04557518 207.48691955 -23.9609375 204.71875 C-24.44884766 204.01234375 -24.93675781 203.3059375 -25.43945312 202.578125 C-26.36119257 201.24379742 -27.28425639 199.91038318 -28.20898438 198.578125 C-31.27608906 194.13385764 -34.17249743 189.60016987 -37 185 C-36.33613281 184.63648438 -35.67226563 184.27296875 -34.98828125 183.8984375 C-34.10527344 183.39570313 -33.22226562 182.89296875 -32.3125 182.375 C-31.44238281 181.88773438 -30.57226562 181.40046875 -29.67578125 180.8984375 C-23.31934471 176.38861537 -21.06274901 171.52860289 -19.0625 164.25 C-18.81435547 163.37786865 -18.56621094 162.5057373 -18.31054688 161.60717773 C-17.51300707 158.744723 -16.75047288 155.8751386 -16 153 C-15.7510498 152.0507666 -15.50209961 151.1015332 -15.24560547 150.12353516 C-4.35814675 107.75819906 0.25850075 63.97628952 0.0625 20.3125 C0.0574664 18.32747511 0.05290684 16.34244896 0.04882812 14.35742188 C0.03798953 9.57158249 0.02083154 4.78580589 0 0 Z " fill="#D700FF" transform="translate(394,234)"/>
<path d="M0 0 C-0.01047363 1.30743164 -0.02094727 2.61486328 -0.03173828 3.96191406 C-0.40541715 40.03438924 -0.40541715 40.03438924 2 76 C2.12890625 77.20720703 2.2578125 78.41441406 2.390625 79.65820312 C5.11658446 104.38114103 9.52028627 128.76864507 15.55163574 152.89404297 C15.88712944 154.23601775 16.21887567 155.57893606 16.54650879 156.92285156 C19.12300195 167.40665069 21.99974945 175.62482253 31 182 C33.7124618 183.3049484 33.7124618 183.3049484 36 184 C35.38347101 187.14333728 34.34391818 189.26000852 32.515625 191.87890625 C31.99919434 192.62551514 31.48276367 193.37212402 30.95068359 194.14135742 C30.38945801 194.94033447 29.82823242 195.73931152 29.25 196.5625 C28.0597298 198.27853068 26.86963041 199.99467985 25.6796875 201.7109375 C25.06834961 202.5884668 24.45701172 203.46599609 23.82714844 204.37011719 C20.98589837 208.45963425 18.18203501 212.57446393 15.375 216.6875 C14.30097747 218.25534276 13.22676038 219.82305228 12.15234375 221.390625 C10.0519162 224.45733995 7.96179412 227.53072344 5.87890625 230.609375 C5.38277832 231.33938721 4.88665039 232.06939941 4.37548828 232.8215332 C3.44719489 234.18749564 2.52214763 235.55567241 1.60107422 236.92651367 C-4.12585194 245.33066141 -4.12585194 245.33066141 -8.078125 246.7421875 C-11.81573158 246.97074618 -14.09282092 246.74444085 -17.046875 244.3203125 C-23.16523488 237.05170096 -27.62839575 228.39526846 -32 220 C-32.34562988 219.3414502 -32.69125977 218.68290039 -33.04736328 218.00439453 C-55.86987015 173.90129428 -61.86490723 119.85237897 -47.14794922 72.24365234 C-40.93948432 53.65187143 -31.99912173 36.48522291 -20 21 C-19.24847656 20.02546875 -18.49695313 19.0509375 -17.72265625 18.046875 C-3.38093575 0 -3.38093575 0 0 0 Z " fill="#8800FF" transform="translate(118,234)"/>
<path d="M0 0 C8.43176288 7.38115984 13.83053525 17.9205666 14.78125 29.0859375 C15.09714694 43.53135541 12.34535091 55.09407479 2.4453125 66.140625 C-5.97498099 74.40303798 -17.70590569 78.26368732 -29.3046875 78.328125 C-42.4383535 78.19131598 -52.81704006 74.49098443 -62.515625 65.375 C-71.61799089 55.40075998 -74.78337348 43.41870467 -74.5546875 30.140625 C-72.97449738 17.59786595 -67.80934077 7.73192025 -58.5546875 -0.859375 C-40.37829274 -14.31577047 -17.80363726 -13.69510559 0 0 Z " fill="#B000FF" transform="translate(285.5546875,170.859375)"/>
<path d="M0 0 C44.22 0 88.44 0 134 0 C125.24728215 32.09329878 125.24728215 32.09329878 115.51391602 38.66381836 C107.92191237 42.71768218 98.95350832 41.69519803 90.58984375 41.62890625 C88.69372929 41.62973604 86.79761491 41.63219957 84.90150452 41.63621521 C80.93989243 41.63906444 76.97884845 41.62445639 73.01733398 41.59692383 C67.95448919 41.56281929 62.8926579 41.56887543 57.82976437 41.5875864 C53.91849913 41.59818353 50.00746739 41.58919435 46.09622383 41.57420158 C44.23002377 41.56904079 42.36379912 41.56947588 40.49760246 41.57574654 C37.88451032 41.58123266 35.27284174 41.56071725 32.65991211 41.53344727 C31.89865021 41.53997314 31.13738831 41.54649902 30.35305786 41.55322266 C23.89930479 41.43942058 18.95103528 39.28039137 13.86108398 35.34716797 C8.50298104 29.37649373 6.38104554 22.70563586 4.0625 15.125 C3.66482422 13.89007813 3.26714844 12.65515625 2.85742188 11.3828125 C0 2.41217997 0 2.41217997 0 0 Z " fill="#B000FF" transform="translate(189,419)"/>
</svg>
